<svg width="83" height="116" viewBox="0 0 83 116" fill="none" xmlns="http://www.w3.org/2000/svg">
<g filter="url(#filter0_dd)">
<line x1="36.4142" y1="62.5858" x2="77.4142" y2="103.586" stroke="white" stroke-width="4"/>
</g>
<g filter="url(#filter1_dd)">
<path d="M45.916 37.8086C44.1595 43.9193 42.0072 48.3724 39.459 51.168C36.8861 53.9388 33.7194 55.3242 29.959 55.3242C25.7038 55.3242 22.1908 53.6296 19.4199 50.2402C16.6243 46.8262 15.2266 42.3978 15.2266 36.9551C15.2266 33.2441 15.944 29.9414 17.3789 27.0469C18.8138 24.1276 20.793 21.8763 23.3164 20.293C25.8398 18.6849 28.5983 17.8809 31.5918 17.8809V25.043C28.3262 25.043 25.7656 26.082 23.9102 28.1602C22.0299 30.2383 21.0898 33.1699 21.0898 36.9551C21.0898 40.4681 21.8691 43.2142 23.4277 45.1934C24.9616 47.1478 27.1016 48.125 29.8477 48.125C32.0495 48.125 33.9173 47.1973 35.4512 45.3418C36.9603 43.4616 38.3457 40.2826 39.6074 35.8047C40.8691 31.3021 42.2669 27.7891 43.8008 25.2656C45.3099 22.7174 47.0788 20.8372 49.1074 19.625C51.1361 18.388 53.5234 17.7695 56.2695 17.7695C60.6484 17.7695 64.1615 19.4766 66.8086 22.8906C69.431 26.3047 70.7422 30.8691 70.7422 36.584C70.7422 40.2949 70.0371 43.7585 68.627 46.9746C67.1921 50.1908 65.2376 52.6771 62.7637 54.4336C60.2897 56.1654 57.4818 57.0313 54.3398 57.0313V49.8691C57.6055 49.8691 60.1908 48.6693 62.0957 46.2695C63.9759 43.8451 64.916 40.6165 64.916 36.584C64.916 32.8236 64.1491 29.9414 62.6152 27.9375C61.0814 25.9336 58.9909 24.9316 56.3438 24.9316C53.6966 24.9316 51.6556 25.8594 50.2207 27.7148C48.7611 29.5703 47.3262 32.9349 45.916 37.8086Z" fill="white"/>
</g>
<g filter="url(#filter2_dd)">
<path d="M18 62L18 108" stroke="white" stroke-width="4"/>
</g>
<line x1="76.0077" y1="63.1328" x2="16.0077" y2="63.1328" stroke="white" stroke-width="6"/>
<defs>
<filter id="filter0_dd" x="31" y="61.1716" width="51.8284" height="51.8284" filterUnits="userSpaceOnUse" color-interpolation-filters="sRGB">
<feFlood flood-opacity="0" result="BackgroundImageFix"/>
<feColorMatrix in="SourceAlpha" type="matrix" values="0 0 0 0 0 0 0 0 0 0 0 0 0 0 0 0 0 0 127 0"/>
<feOffset dy="4"/>
<feGaussianBlur stdDeviation="2"/>
<feColorMatrix type="matrix" values="0 0 0 0 0 0 0 0 0 0 0 0 0 0 0 0 0 0 0.25 0"/>
<feBlend mode="normal" in2="BackgroundImageFix" result="effect1_dropShadow"/>
<feColorMatrix in="SourceAlpha" type="matrix" values="0 0 0 0 0 0 0 0 0 0 0 0 0 0 0 0 0 0 127 0"/>
<feOffset dy="4"/>
<feGaussianBlur stdDeviation="2"/>
<feColorMatrix type="matrix" values="0 0 0 0 0 0 0 0 0 0 0 0 0 0 0 0 0 0 0.25 0"/>
<feBlend mode="normal" in2="effect1_dropShadow" result="effect2_dropShadow"/>
<feBlend mode="normal" in="SourceGraphic" in2="effect2_dropShadow" result="shape"/>
</filter>
<filter id="filter1_dd" x="11.2266" y="17.7695" width="63.5156" height="47.2617" filterUnits="userSpaceOnUse" color-interpolation-filters="sRGB">
<feFlood flood-opacity="0" result="BackgroundImageFix"/>
<feColorMatrix in="SourceAlpha" type="matrix" values="0 0 0 0 0 0 0 0 0 0 0 0 0 0 0 0 0 0 127 0"/>
<feOffset dy="4"/>
<feGaussianBlur stdDeviation="2"/>
<feColorMatrix type="matrix" values="0 0 0 0 0 0 0 0 0 0 0 0 0 0 0 0 0 0 0.25 0"/>
<feBlend mode="normal" in2="BackgroundImageFix" result="effect1_dropShadow"/>
<feColorMatrix in="SourceAlpha" type="matrix" values="0 0 0 0 0 0 0 0 0 0 0 0 0 0 0 0 0 0 127 0"/>
<feOffset dy="4"/>
<feGaussianBlur stdDeviation="2"/>
<feColorMatrix type="matrix" values="0 0 0 0 0 0 0 0 0 0 0 0 0 0 0 0 0 0 0.25 0"/>
<feBlend mode="normal" in2="effect1_dropShadow" result="effect2_dropShadow"/>
<feBlend mode="normal" in="SourceGraphic" in2="effect2_dropShadow" result="shape"/>
</filter>
<filter id="filter2_dd" x="12" y="62" width="12" height="54" filterUnits="userSpaceOnUse" color-interpolation-filters="sRGB">
<feFlood flood-opacity="0" result="BackgroundImageFix"/>
<feColorMatrix in="SourceAlpha" type="matrix" values="0 0 0 0 0 0 0 0 0 0 0 0 0 0 0 0 0 0 127 0"/>
<feOffset dy="4"/>
<feGaussianBlur stdDeviation="2"/>
<feColorMatrix type="matrix" values="0 0 0 0 0 0 0 0 0 0 0 0 0 0 0 0 0 0 0.25 0"/>
<feBlend mode="normal" in2="BackgroundImageFix" result="effect1_dropShadow"/>
<feColorMatrix in="SourceAlpha" type="matrix" values="0 0 0 0 0 0 0 0 0 0 0 0 0 0 0 0 0 0 127 0"/>
<feOffset dy="4"/>
<feGaussianBlur stdDeviation="2"/>
<feColorMatrix type="matrix" values="0 0 0 0 0 0 0 0 0 0 0 0 0 0 0 0 0 0 0.25 0"/>
<feBlend mode="normal" in2="effect1_dropShadow" result="effect2_dropShadow"/>
<feBlend mode="normal" in="SourceGraphic" in2="effect2_dropShadow" result="shape"/>
</filter>
</defs>
</svg>
